<mxfile host="app.diagrams.net" modified="2024-05-22T22:38:23.643Z" agent="Mozilla/5.0 (X11; Linux x86_64; rv:109.0) Gecko/20100101 Firefox/117.0" version="24.4.6" etag="SKJYFjzmV7EX1pHyti19" type="device">
  <diagram name="Page-1" id="7e0a89b8-554c-2b80-1dc8-d5c74ca68de4">
    <mxGraphModel dx="1188" dy="624" grid="1" gridSize="10" guides="1" tooltips="1" connect="1" arrows="1" fold="1" page="1" pageScale="1" pageWidth="1100" pageHeight="850" background="none" math="0" shadow="0">
      <root>
        <mxCell id="0" />
        <mxCell id="1" parent="0" />
        <mxCell id="mbTVtiMHDX3Djsl5jZRn-1" value="data address" style="rounded=0;whiteSpace=wrap;html=1;" parent="1" vertex="1">
          <mxGeometry x="240" y="40" width="120" height="50" as="geometry" />
        </mxCell>
        <mxCell id="mbTVtiMHDX3Djsl5jZRn-102" style="edgeStyle=orthogonalEdgeStyle;rounded=0;orthogonalLoop=1;jettySize=auto;html=1;entryX=0.5;entryY=1;entryDx=0;entryDy=0;" parent="1" source="mbTVtiMHDX3Djsl5jZRn-2" target="mbTVtiMHDX3Djsl5jZRn-63" edge="1">
          <mxGeometry relative="1" as="geometry">
            <Array as="points">
              <mxPoint x="730" y="100" />
              <mxPoint x="730" y="590" />
              <mxPoint x="100" y="590" />
            </Array>
          </mxGeometry>
        </mxCell>
        <mxCell id="mbTVtiMHDX3Djsl5jZRn-2" value="memory" style="rounded=0;whiteSpace=wrap;html=1;" parent="1" vertex="1">
          <mxGeometry x="590" y="40" width="120" height="120" as="geometry" />
        </mxCell>
        <mxCell id="mbTVtiMHDX3Djsl5jZRn-3" style="edgeStyle=orthogonalEdgeStyle;rounded=0;orthogonalLoop=1;jettySize=auto;html=1;entryX=-0.015;entryY=0.21;entryDx=0;entryDy=0;entryPerimeter=0;" parent="1" source="mbTVtiMHDX3Djsl5jZRn-1" target="mbTVtiMHDX3Djsl5jZRn-2" edge="1">
          <mxGeometry relative="1" as="geometry" />
        </mxCell>
        <mxCell id="mbTVtiMHDX3Djsl5jZRn-7" value="address" style="edgeLabel;html=1;align=center;verticalAlign=middle;resizable=0;points=[];" parent="mbTVtiMHDX3Djsl5jZRn-3" vertex="1" connectable="0">
          <mxGeometry x="-0.1045" relative="1" as="geometry">
            <mxPoint x="1" as="offset" />
          </mxGeometry>
        </mxCell>
        <mxCell id="mbTVtiMHDX3Djsl5jZRn-4" value="" style="endArrow=classic;html=1;rounded=0;dashed=1;" parent="1" edge="1">
          <mxGeometry width="50" height="50" relative="1" as="geometry">
            <mxPoint x="90" y="50" as="sourcePoint" />
            <mxPoint x="240" y="50" as="targetPoint" />
          </mxGeometry>
        </mxCell>
        <mxCell id="mbTVtiMHDX3Djsl5jZRn-6" value="latch_data_address" style="edgeLabel;html=1;align=center;verticalAlign=middle;resizable=0;points=[];" parent="mbTVtiMHDX3Djsl5jZRn-4" vertex="1" connectable="0">
          <mxGeometry x="-0.0036" relative="1" as="geometry">
            <mxPoint as="offset" />
          </mxGeometry>
        </mxCell>
        <mxCell id="mbTVtiMHDX3Djsl5jZRn-15" style="edgeStyle=orthogonalEdgeStyle;rounded=0;orthogonalLoop=1;jettySize=auto;html=1;exitX=0;exitY=0.25;exitDx=0;exitDy=0;entryX=0.5;entryY=1;entryDx=0;entryDy=0;" parent="1" source="mbTVtiMHDX3Djsl5jZRn-8" target="mbTVtiMHDX3Djsl5jZRn-12" edge="1">
          <mxGeometry relative="1" as="geometry">
            <mxPoint x="290" y="200" as="sourcePoint" />
            <mxPoint x="30" y="80" as="targetPoint" />
            <Array as="points">
              <mxPoint x="100" y="298" />
              <mxPoint x="100" y="120" />
            </Array>
          </mxGeometry>
        </mxCell>
        <mxCell id="mbTVtiMHDX3Djsl5jZRn-19" value="(per register)" style="edgeLabel;html=1;align=center;verticalAlign=middle;resizable=0;points=[];" parent="mbTVtiMHDX3Djsl5jZRn-15" vertex="1" connectable="0">
          <mxGeometry x="-0.3239" y="-2" relative="1" as="geometry">
            <mxPoint x="55" y="2" as="offset" />
          </mxGeometry>
        </mxCell>
        <mxCell id="mbTVtiMHDX3Djsl5jZRn-88" style="edgeStyle=orthogonalEdgeStyle;rounded=0;orthogonalLoop=1;jettySize=auto;html=1;entryX=0.75;entryY=1;entryDx=0;entryDy=0;exitX=1.003;exitY=0.171;exitDx=0;exitDy=0;exitPerimeter=0;" parent="1" source="mbTVtiMHDX3Djsl5jZRn-8" target="mbTVtiMHDX3Djsl5jZRn-91" edge="1">
          <mxGeometry relative="1" as="geometry">
            <mxPoint x="340" y="280" as="sourcePoint" />
            <mxPoint x="480" y="166" as="targetPoint" />
            <Array as="points">
              <mxPoint x="340" y="289" />
              <mxPoint x="350" y="289" />
              <mxPoint x="350" y="155" />
            </Array>
          </mxGeometry>
        </mxCell>
        <mxCell id="mbTVtiMHDX3Djsl5jZRn-90" value="&lt;div&gt;(per register)&lt;/div&gt;" style="edgeLabel;html=1;align=center;verticalAlign=middle;resizable=0;points=[];" parent="mbTVtiMHDX3Djsl5jZRn-88" vertex="1" connectable="0">
          <mxGeometry x="0.4869" y="-1" relative="1" as="geometry">
            <mxPoint as="offset" />
          </mxGeometry>
        </mxCell>
        <mxCell id="mbTVtiMHDX3Djsl5jZRn-108" style="edgeStyle=orthogonalEdgeStyle;rounded=0;orthogonalLoop=1;jettySize=auto;html=1;exitX=1;exitY=0.25;exitDx=0;exitDy=0;entryX=0.5;entryY=1;entryDx=0;entryDy=0;" parent="1" source="mbTVtiMHDX3Djsl5jZRn-8" target="mbTVtiMHDX3Djsl5jZRn-109" edge="1">
          <mxGeometry relative="1" as="geometry">
            <mxPoint x="620" y="297" as="targetPoint" />
          </mxGeometry>
        </mxCell>
        <mxCell id="mbTVtiMHDX3Djsl5jZRn-115" value="(per register)" style="edgeLabel;html=1;align=center;verticalAlign=middle;resizable=0;points=[];" parent="mbTVtiMHDX3Djsl5jZRn-108" vertex="1" connectable="0">
          <mxGeometry x="-0.1281" y="1" relative="1" as="geometry">
            <mxPoint as="offset" />
          </mxGeometry>
        </mxCell>
        <mxCell id="mbTVtiMHDX3Djsl5jZRn-8" value="&lt;div&gt;registers (R0 - R7)&lt;/div&gt;" style="rounded=0;whiteSpace=wrap;html=1;" parent="1" vertex="1">
          <mxGeometry x="210" y="270" width="120" height="110" as="geometry" />
        </mxCell>
        <mxCell id="mbTVtiMHDX3Djsl5jZRn-10" value="" style="endArrow=classic;html=1;rounded=0;dashed=1;entryX=0.25;entryY=1;entryDx=0;entryDy=0;" parent="1" target="mbTVtiMHDX3Djsl5jZRn-36" edge="1">
          <mxGeometry width="50" height="50" relative="1" as="geometry">
            <mxPoint x="605" y="350" as="sourcePoint" />
            <mxPoint x="610" y="400" as="targetPoint" />
          </mxGeometry>
        </mxCell>
        <mxCell id="mbTVtiMHDX3Djsl5jZRn-11" value="imm_value" style="edgeLabel;html=1;align=center;verticalAlign=middle;resizable=0;points=[];" parent="mbTVtiMHDX3Djsl5jZRn-10" vertex="1" connectable="0">
          <mxGeometry x="-0.0036" relative="1" as="geometry">
            <mxPoint y="-3" as="offset" />
          </mxGeometry>
        </mxCell>
        <mxCell id="mbTVtiMHDX3Djsl5jZRn-14" style="edgeStyle=orthogonalEdgeStyle;rounded=0;orthogonalLoop=1;jettySize=auto;html=1;entryX=0;entryY=0.75;entryDx=0;entryDy=0;" parent="1" source="mbTVtiMHDX3Djsl5jZRn-12" target="mbTVtiMHDX3Djsl5jZRn-1" edge="1">
          <mxGeometry relative="1" as="geometry" />
        </mxCell>
        <mxCell id="mbTVtiMHDX3Djsl5jZRn-12" value="MUX" style="shape=trapezoid;perimeter=trapezoidPerimeter;whiteSpace=wrap;html=1;fixedSize=1;rotation=90;" parent="1" vertex="1">
          <mxGeometry x="110" y="90" width="100" height="60" as="geometry" />
        </mxCell>
        <mxCell id="mbTVtiMHDX3Djsl5jZRn-16" value="" style="endArrow=classic;html=1;rounded=0;dashed=1;entryX=1;entryY=0.5;entryDx=0;entryDy=0;" parent="1" target="mbTVtiMHDX3Djsl5jZRn-12" edge="1">
          <mxGeometry width="50" height="50" relative="1" as="geometry">
            <mxPoint x="160" y="220" as="sourcePoint" />
            <mxPoint x="190" y="220" as="targetPoint" />
          </mxGeometry>
        </mxCell>
        <mxCell id="mbTVtiMHDX3Djsl5jZRn-17" value="sel_data_addr" style="edgeLabel;html=1;align=center;verticalAlign=middle;resizable=0;points=[];" parent="mbTVtiMHDX3Djsl5jZRn-16" vertex="1" connectable="0">
          <mxGeometry x="-0.0036" relative="1" as="geometry">
            <mxPoint y="20" as="offset" />
          </mxGeometry>
        </mxCell>
        <mxCell id="mbTVtiMHDX3Djsl5jZRn-33" value="" style="group" parent="1" vertex="1" connectable="0">
          <mxGeometry x="466" y="500" width="110" height="40" as="geometry" />
        </mxCell>
        <mxCell id="mbTVtiMHDX3Djsl5jZRn-21" value="" style="endArrow=none;html=1;rounded=0;" parent="mbTVtiMHDX3Djsl5jZRn-33" edge="1">
          <mxGeometry width="50" height="50" relative="1" as="geometry">
            <mxPoint x="20" y="40" as="sourcePoint" />
            <mxPoint x="90" y="40" as="targetPoint" />
          </mxGeometry>
        </mxCell>
        <mxCell id="mbTVtiMHDX3Djsl5jZRn-22" value="" style="endArrow=none;html=1;rounded=0;" parent="mbTVtiMHDX3Djsl5jZRn-33" edge="1">
          <mxGeometry width="50" height="50" relative="1" as="geometry">
            <mxPoint as="sourcePoint" />
            <mxPoint x="20" y="40" as="targetPoint" />
          </mxGeometry>
        </mxCell>
        <mxCell id="mbTVtiMHDX3Djsl5jZRn-24" value="" style="endArrow=none;html=1;rounded=0;" parent="mbTVtiMHDX3Djsl5jZRn-33" edge="1">
          <mxGeometry width="50" height="50" relative="1" as="geometry">
            <mxPoint x="90" y="40" as="sourcePoint" />
            <mxPoint x="110" as="targetPoint" />
          </mxGeometry>
        </mxCell>
        <mxCell id="mbTVtiMHDX3Djsl5jZRn-25" value="" style="endArrow=none;html=1;rounded=0;" parent="mbTVtiMHDX3Djsl5jZRn-33" edge="1">
          <mxGeometry width="50" height="50" relative="1" as="geometry">
            <mxPoint as="sourcePoint" />
            <mxPoint x="50" as="targetPoint" />
          </mxGeometry>
        </mxCell>
        <mxCell id="mbTVtiMHDX3Djsl5jZRn-29" value="ALU" style="text;html=1;align=center;verticalAlign=middle;whiteSpace=wrap;rounded=0;" parent="mbTVtiMHDX3Djsl5jZRn-33" vertex="1">
          <mxGeometry x="26" y="8" width="60" height="30" as="geometry" />
        </mxCell>
        <mxCell id="mbTVtiMHDX3Djsl5jZRn-30" value="" style="endArrow=none;html=1;rounded=0;" parent="mbTVtiMHDX3Djsl5jZRn-33" edge="1">
          <mxGeometry width="50" height="50" relative="1" as="geometry">
            <mxPoint x="60" as="sourcePoint" />
            <mxPoint x="110" as="targetPoint" />
          </mxGeometry>
        </mxCell>
        <mxCell id="mbTVtiMHDX3Djsl5jZRn-31" value="" style="endArrow=none;html=1;rounded=0;" parent="mbTVtiMHDX3Djsl5jZRn-33" edge="1">
          <mxGeometry width="50" height="50" relative="1" as="geometry">
            <mxPoint x="50" as="sourcePoint" />
            <mxPoint x="55" y="10" as="targetPoint" />
          </mxGeometry>
        </mxCell>
        <mxCell id="mbTVtiMHDX3Djsl5jZRn-32" value="" style="endArrow=none;html=1;rounded=0;" parent="mbTVtiMHDX3Djsl5jZRn-33" edge="1">
          <mxGeometry width="50" height="50" relative="1" as="geometry">
            <mxPoint x="55" y="10" as="sourcePoint" />
            <mxPoint x="60" as="targetPoint" />
          </mxGeometry>
        </mxCell>
        <mxCell id="mbTVtiMHDX3Djsl5jZRn-48" style="edgeStyle=orthogonalEdgeStyle;rounded=0;orthogonalLoop=1;jettySize=auto;html=1;" parent="1" source="mbTVtiMHDX3Djsl5jZRn-35" edge="1">
          <mxGeometry relative="1" as="geometry">
            <mxPoint x="490" y="500" as="targetPoint" />
          </mxGeometry>
        </mxCell>
        <mxCell id="mbTVtiMHDX3Djsl5jZRn-35" value="MUX" style="shape=trapezoid;perimeter=trapezoidPerimeter;whiteSpace=wrap;html=1;fixedSize=1;rotation=-180;" parent="1" vertex="1">
          <mxGeometry x="410" y="400" width="100" height="60" as="geometry" />
        </mxCell>
        <mxCell id="mbTVtiMHDX3Djsl5jZRn-50" style="edgeStyle=orthogonalEdgeStyle;rounded=0;orthogonalLoop=1;jettySize=auto;html=1;exitX=0.5;exitY=0;exitDx=0;exitDy=0;" parent="1" source="mbTVtiMHDX3Djsl5jZRn-36" edge="1">
          <mxGeometry relative="1" as="geometry">
            <mxPoint x="550" y="500" as="targetPoint" />
          </mxGeometry>
        </mxCell>
        <mxCell id="mbTVtiMHDX3Djsl5jZRn-36" value="MUX" style="shape=trapezoid;perimeter=trapezoidPerimeter;whiteSpace=wrap;html=1;fixedSize=1;rotation=-180;" parent="1" vertex="1">
          <mxGeometry x="530" y="400" width="100" height="60" as="geometry" />
        </mxCell>
        <mxCell id="mbTVtiMHDX3Djsl5jZRn-41" style="edgeStyle=orthogonalEdgeStyle;rounded=0;orthogonalLoop=1;jettySize=auto;html=1;entryX=0.75;entryY=1;entryDx=0;entryDy=0;exitX=1;exitY=0.75;exitDx=0;exitDy=0;" parent="1" source="mbTVtiMHDX3Djsl5jZRn-8" target="mbTVtiMHDX3Djsl5jZRn-35" edge="1">
          <mxGeometry relative="1" as="geometry">
            <mxPoint x="340" y="270" as="sourcePoint" />
          </mxGeometry>
        </mxCell>
        <mxCell id="mbTVtiMHDX3Djsl5jZRn-47" value="(per register)" style="edgeLabel;html=1;align=center;verticalAlign=middle;resizable=0;points=[];" parent="mbTVtiMHDX3Djsl5jZRn-41" vertex="1" connectable="0">
          <mxGeometry x="-0.4504" relative="1" as="geometry">
            <mxPoint x="14" as="offset" />
          </mxGeometry>
        </mxCell>
        <mxCell id="mbTVtiMHDX3Djsl5jZRn-42" style="edgeStyle=orthogonalEdgeStyle;rounded=0;orthogonalLoop=1;jettySize=auto;html=1;entryX=0.75;entryY=1;entryDx=0;entryDy=0;exitX=1;exitY=0.5;exitDx=0;exitDy=0;" parent="1" source="mbTVtiMHDX3Djsl5jZRn-8" target="mbTVtiMHDX3Djsl5jZRn-36" edge="1">
          <mxGeometry relative="1" as="geometry">
            <mxPoint x="340" y="247" as="sourcePoint" />
            <mxPoint x="600" y="370" as="targetPoint" />
          </mxGeometry>
        </mxCell>
        <mxCell id="mbTVtiMHDX3Djsl5jZRn-45" value="(per register)" style="edgeLabel;html=1;align=center;verticalAlign=middle;resizable=0;points=[];" parent="mbTVtiMHDX3Djsl5jZRn-42" vertex="1" connectable="0">
          <mxGeometry x="-0.3528" y="2" relative="1" as="geometry">
            <mxPoint x="-40" y="2" as="offset" />
          </mxGeometry>
        </mxCell>
        <mxCell id="mbTVtiMHDX3Djsl5jZRn-51" value="" style="endArrow=classic;html=1;rounded=0;dashed=1;entryX=0;entryY=0.5;entryDx=0;entryDy=0;" parent="1" edge="1">
          <mxGeometry width="50" height="50" relative="1" as="geometry">
            <mxPoint x="330" y="430" as="sourcePoint" />
            <mxPoint x="420" y="429.58" as="targetPoint" />
          </mxGeometry>
        </mxCell>
        <mxCell id="mbTVtiMHDX3Djsl5jZRn-52" value="sel_left" style="edgeLabel;html=1;align=center;verticalAlign=middle;resizable=0;points=[];" parent="mbTVtiMHDX3Djsl5jZRn-51" vertex="1" connectable="0">
          <mxGeometry x="-0.0036" relative="1" as="geometry">
            <mxPoint as="offset" />
          </mxGeometry>
        </mxCell>
        <mxCell id="mbTVtiMHDX3Djsl5jZRn-54" value="" style="endArrow=classic;html=1;rounded=0;dashed=1;entryX=0;entryY=0.5;entryDx=0;entryDy=0;" parent="1" target="mbTVtiMHDX3Djsl5jZRn-36" edge="1">
          <mxGeometry width="50" height="50" relative="1" as="geometry">
            <mxPoint x="700" y="430" as="sourcePoint" />
            <mxPoint x="640" y="430" as="targetPoint" />
          </mxGeometry>
        </mxCell>
        <mxCell id="mbTVtiMHDX3Djsl5jZRn-55" value="sel_right" style="edgeLabel;html=1;align=center;verticalAlign=middle;resizable=0;points=[];" parent="mbTVtiMHDX3Djsl5jZRn-54" vertex="1" connectable="0">
          <mxGeometry x="-0.0036" relative="1" as="geometry">
            <mxPoint as="offset" />
          </mxGeometry>
        </mxCell>
        <mxCell id="mbTVtiMHDX3Djsl5jZRn-56" value="" style="endArrow=classic;html=1;rounded=0;dashed=1;" parent="1" edge="1">
          <mxGeometry width="50" height="50" relative="1" as="geometry">
            <mxPoint x="390" y="523" as="sourcePoint" />
            <mxPoint x="480" y="523" as="targetPoint" />
          </mxGeometry>
        </mxCell>
        <mxCell id="mbTVtiMHDX3Djsl5jZRn-57" value="alu_ctl" style="edgeLabel;html=1;align=center;verticalAlign=middle;resizable=0;points=[];" parent="mbTVtiMHDX3Djsl5jZRn-56" vertex="1" connectable="0">
          <mxGeometry x="-0.0036" relative="1" as="geometry">
            <mxPoint as="offset" />
          </mxGeometry>
        </mxCell>
        <mxCell id="dnhSuoNJByi2-0SbZ8vb-2" style="edgeStyle=orthogonalEdgeStyle;rounded=0;orthogonalLoop=1;jettySize=auto;html=1;entryX=1;entryY=0.5;entryDx=0;entryDy=0;" edge="1" parent="1" source="mbTVtiMHDX3Djsl5jZRn-60" target="dnhSuoNJByi2-0SbZ8vb-1">
          <mxGeometry relative="1" as="geometry">
            <Array as="points">
              <mxPoint x="521" y="555" />
            </Array>
          </mxGeometry>
        </mxCell>
        <mxCell id="mbTVtiMHDX3Djsl5jZRn-60" value="" style="rounded=0;whiteSpace=wrap;html=1;" parent="1" vertex="1">
          <mxGeometry x="501" y="540" width="40" height="1" as="geometry" />
        </mxCell>
        <mxCell id="mbTVtiMHDX3Djsl5jZRn-65" style="edgeStyle=orthogonalEdgeStyle;rounded=0;orthogonalLoop=1;jettySize=auto;html=1;entryX=0.5;entryY=1;entryDx=0;entryDy=0;" parent="1" source="mbTVtiMHDX3Djsl5jZRn-63" target="mbTVtiMHDX3Djsl5jZRn-64" edge="1">
          <mxGeometry relative="1" as="geometry" />
        </mxCell>
        <mxCell id="mbTVtiMHDX3Djsl5jZRn-63" value="MUX" style="shape=trapezoid;perimeter=trapezoidPerimeter;whiteSpace=wrap;html=1;fixedSize=1;rotation=0;" parent="1" vertex="1">
          <mxGeometry x="50" y="480" width="100" height="60" as="geometry" />
        </mxCell>
        <mxCell id="mbTVtiMHDX3Djsl5jZRn-67" style="edgeStyle=orthogonalEdgeStyle;rounded=0;orthogonalLoop=1;jettySize=auto;html=1;exitX=0.5;exitY=0;exitDx=0;exitDy=0;entryX=0;entryY=0.75;entryDx=0;entryDy=0;" parent="1" source="mbTVtiMHDX3Djsl5jZRn-64" target="mbTVtiMHDX3Djsl5jZRn-8" edge="1">
          <mxGeometry relative="1" as="geometry">
            <mxPoint x="200" y="260" as="targetPoint" />
          </mxGeometry>
        </mxCell>
        <mxCell id="mbTVtiMHDX3Djsl5jZRn-71" value="(per register)" style="edgeLabel;html=1;align=center;verticalAlign=middle;resizable=0;points=[];" parent="mbTVtiMHDX3Djsl5jZRn-67" vertex="1" connectable="0">
          <mxGeometry x="0.4058" y="1" relative="1" as="geometry">
            <mxPoint x="-15" y="1" as="offset" />
          </mxGeometry>
        </mxCell>
        <mxCell id="mbTVtiMHDX3Djsl5jZRn-64" value="DEMUX" style="shape=trapezoid;perimeter=trapezoidPerimeter;whiteSpace=wrap;html=1;fixedSize=1;rotation=0;flipH=1;flipV=1;" parent="1" vertex="1">
          <mxGeometry x="50" y="395" width="100" height="60" as="geometry" />
        </mxCell>
        <mxCell id="mbTVtiMHDX3Djsl5jZRn-72" value="" style="endArrow=classic;html=1;rounded=0;dashed=1;entryX=1;entryY=0.5;entryDx=0;entryDy=0;" parent="1" target="mbTVtiMHDX3Djsl5jZRn-63" edge="1">
          <mxGeometry width="50" height="50" relative="1" as="geometry">
            <mxPoint x="230" y="510" as="sourcePoint" />
            <mxPoint x="260" y="509.65999999999997" as="targetPoint" />
          </mxGeometry>
        </mxCell>
        <mxCell id="mbTVtiMHDX3Djsl5jZRn-73" value="sel_reg_src" style="edgeLabel;html=1;align=center;verticalAlign=middle;resizable=0;points=[];" parent="mbTVtiMHDX3Djsl5jZRn-72" vertex="1" connectable="0">
          <mxGeometry x="-0.0036" relative="1" as="geometry">
            <mxPoint as="offset" />
          </mxGeometry>
        </mxCell>
        <mxCell id="mbTVtiMHDX3Djsl5jZRn-77" value="" style="endArrow=classic;html=1;rounded=0;dashed=1;entryX=0.126;entryY=0.395;entryDx=0;entryDy=0;entryPerimeter=0;" parent="1" target="mbTVtiMHDX3Djsl5jZRn-64" edge="1">
          <mxGeometry width="50" height="50" relative="1" as="geometry">
            <mxPoint x="230" y="430" as="sourcePoint" />
            <mxPoint x="150" y="430" as="targetPoint" />
          </mxGeometry>
        </mxCell>
        <mxCell id="mbTVtiMHDX3Djsl5jZRn-78" value="sel_reg" style="edgeLabel;html=1;align=center;verticalAlign=middle;resizable=0;points=[];" parent="mbTVtiMHDX3Djsl5jZRn-77" vertex="1" connectable="0">
          <mxGeometry x="-0.0036" relative="1" as="geometry">
            <mxPoint as="offset" />
          </mxGeometry>
        </mxCell>
        <mxCell id="mbTVtiMHDX3Djsl5jZRn-79" value="input" style="rounded=0;whiteSpace=wrap;html=1;" parent="1" vertex="1">
          <mxGeometry x="35" y="610" width="80" height="40" as="geometry" />
        </mxCell>
        <mxCell id="mbTVtiMHDX3Djsl5jZRn-83" style="edgeStyle=orthogonalEdgeStyle;rounded=0;orthogonalLoop=1;jettySize=auto;html=1;entryX=0.25;entryY=1;entryDx=0;entryDy=0;" parent="1" source="mbTVtiMHDX3Djsl5jZRn-79" target="mbTVtiMHDX3Djsl5jZRn-63" edge="1">
          <mxGeometry relative="1" as="geometry">
            <mxPoint x="80" y="560" as="targetPoint" />
          </mxGeometry>
        </mxCell>
        <mxCell id="mbTVtiMHDX3Djsl5jZRn-84" value="" style="endArrow=classic;html=1;rounded=0;" parent="1" edge="1">
          <mxGeometry width="50" height="50" relative="1" as="geometry">
            <mxPoint x="566" y="520" as="sourcePoint" />
            <mxPoint x="660" y="520" as="targetPoint" />
          </mxGeometry>
        </mxCell>
        <mxCell id="mbTVtiMHDX3Djsl5jZRn-85" value="truth" style="edgeLabel;html=1;align=center;verticalAlign=middle;resizable=0;points=[];" parent="mbTVtiMHDX3Djsl5jZRn-84" vertex="1" connectable="0">
          <mxGeometry x="-0.1155" y="-1" relative="1" as="geometry">
            <mxPoint as="offset" />
          </mxGeometry>
        </mxCell>
        <mxCell id="mbTVtiMHDX3Djsl5jZRn-86" value="" style="endArrow=classic;html=1;rounded=0;dashed=1;entryX=0;entryY=0.5;entryDx=0;entryDy=0;" parent="1" target="mbTVtiMHDX3Djsl5jZRn-8" edge="1">
          <mxGeometry width="50" height="50" relative="1" as="geometry">
            <mxPoint x="80" y="325" as="sourcePoint" />
            <mxPoint x="190" y="280" as="targetPoint" />
          </mxGeometry>
        </mxCell>
        <mxCell id="mbTVtiMHDX3Djsl5jZRn-87" value="latch_rX (per register)" style="edgeLabel;html=1;align=center;verticalAlign=middle;resizable=0;points=[];" parent="mbTVtiMHDX3Djsl5jZRn-86" vertex="1" connectable="0">
          <mxGeometry x="-0.0036" relative="1" as="geometry">
            <mxPoint x="-4" as="offset" />
          </mxGeometry>
        </mxCell>
        <mxCell id="mbTVtiMHDX3Djsl5jZRn-92" style="edgeStyle=orthogonalEdgeStyle;rounded=0;orthogonalLoop=1;jettySize=auto;html=1;entryX=0;entryY=0.75;entryDx=0;entryDy=0;" parent="1" source="mbTVtiMHDX3Djsl5jZRn-91" target="mbTVtiMHDX3Djsl5jZRn-2" edge="1">
          <mxGeometry relative="1" as="geometry" />
        </mxCell>
        <mxCell id="mbTVtiMHDX3Djsl5jZRn-91" value="MUX" style="shape=trapezoid;perimeter=trapezoidPerimeter;whiteSpace=wrap;html=1;fixedSize=1;rotation=90;" parent="1" vertex="1">
          <mxGeometry x="476" y="100" width="100" height="60" as="geometry" />
        </mxCell>
        <mxCell id="mbTVtiMHDX3Djsl5jZRn-93" value="" style="endArrow=classic;html=1;rounded=0;dashed=1;entryX=0.5;entryY=1;entryDx=0;entryDy=0;" parent="1" target="mbTVtiMHDX3Djsl5jZRn-2" edge="1">
          <mxGeometry width="50" height="50" relative="1" as="geometry">
            <mxPoint x="680" y="200" as="sourcePoint" />
            <mxPoint x="720" y="189.99999999999997" as="targetPoint" />
          </mxGeometry>
        </mxCell>
        <mxCell id="mbTVtiMHDX3Djsl5jZRn-94" value="latch_mem_wr" style="edgeLabel;html=1;align=center;verticalAlign=middle;resizable=0;points=[];" parent="mbTVtiMHDX3Djsl5jZRn-93" vertex="1" connectable="0">
          <mxGeometry x="-0.0036" relative="1" as="geometry">
            <mxPoint y="3" as="offset" />
          </mxGeometry>
        </mxCell>
        <mxCell id="mbTVtiMHDX3Djsl5jZRn-105" value="" style="endArrow=classic;html=1;rounded=0;dashed=1;entryX=0.88;entryY=0.428;entryDx=0;entryDy=0;entryPerimeter=0;" parent="1" target="mbTVtiMHDX3Djsl5jZRn-91" edge="1">
          <mxGeometry width="50" height="50" relative="1" as="geometry">
            <mxPoint x="530" y="210" as="sourcePoint" />
            <mxPoint x="530" y="170" as="targetPoint" />
          </mxGeometry>
        </mxCell>
        <mxCell id="mbTVtiMHDX3Djsl5jZRn-106" value="sel_mem_wr_reg" style="edgeLabel;html=1;align=center;verticalAlign=middle;resizable=0;points=[];" parent="mbTVtiMHDX3Djsl5jZRn-105" vertex="1" connectable="0">
          <mxGeometry x="-0.0036" relative="1" as="geometry">
            <mxPoint as="offset" />
          </mxGeometry>
        </mxCell>
        <mxCell id="mbTVtiMHDX3Djsl5jZRn-107" value="output" style="rounded=0;whiteSpace=wrap;html=1;" parent="1" vertex="1">
          <mxGeometry x="849" y="277" width="80" height="40" as="geometry" />
        </mxCell>
        <mxCell id="mbTVtiMHDX3Djsl5jZRn-110" style="edgeStyle=orthogonalEdgeStyle;rounded=0;orthogonalLoop=1;jettySize=auto;html=1;entryX=0;entryY=0.5;entryDx=0;entryDy=0;" parent="1" source="mbTVtiMHDX3Djsl5jZRn-109" target="mbTVtiMHDX3Djsl5jZRn-107" edge="1">
          <mxGeometry relative="1" as="geometry" />
        </mxCell>
        <mxCell id="mbTVtiMHDX3Djsl5jZRn-109" value="MUX" style="shape=trapezoid;perimeter=trapezoidPerimeter;whiteSpace=wrap;html=1;fixedSize=1;rotation=90;" parent="1" vertex="1">
          <mxGeometry x="739" y="267" width="100" height="60" as="geometry" />
        </mxCell>
        <mxCell id="mbTVtiMHDX3Djsl5jZRn-111" value="" style="endArrow=classic;html=1;rounded=0;dashed=1;entryX=1;entryY=0.5;entryDx=0;entryDy=0;" parent="1" target="mbTVtiMHDX3Djsl5jZRn-109" edge="1">
          <mxGeometry width="50" height="50" relative="1" as="geometry">
            <mxPoint x="789" y="380" as="sourcePoint" />
            <mxPoint x="793" y="336" as="targetPoint" />
          </mxGeometry>
        </mxCell>
        <mxCell id="mbTVtiMHDX3Djsl5jZRn-112" value="sel_out_reg" style="edgeLabel;html=1;align=center;verticalAlign=middle;resizable=0;points=[];" parent="mbTVtiMHDX3Djsl5jZRn-111" vertex="1" connectable="0">
          <mxGeometry x="-0.0036" relative="1" as="geometry">
            <mxPoint as="offset" />
          </mxGeometry>
        </mxCell>
        <mxCell id="mbTVtiMHDX3Djsl5jZRn-113" value="" style="endArrow=classic;html=1;rounded=0;dashed=1;entryX=0.5;entryY=1;entryDx=0;entryDy=0;" parent="1" target="mbTVtiMHDX3Djsl5jZRn-107" edge="1">
          <mxGeometry width="50" height="50" relative="1" as="geometry">
            <mxPoint x="888.71" y="360" as="sourcePoint" />
            <mxPoint x="889" y="330" as="targetPoint" />
          </mxGeometry>
        </mxCell>
        <mxCell id="mbTVtiMHDX3Djsl5jZRn-114" value="signal_output" style="edgeLabel;html=1;align=center;verticalAlign=middle;resizable=0;points=[];" parent="mbTVtiMHDX3Djsl5jZRn-113" vertex="1" connectable="0">
          <mxGeometry x="-0.0036" relative="1" as="geometry">
            <mxPoint as="offset" />
          </mxGeometry>
        </mxCell>
        <mxCell id="dnhSuoNJByi2-0SbZ8vb-3" style="edgeStyle=orthogonalEdgeStyle;rounded=0;orthogonalLoop=1;jettySize=auto;html=1;entryX=0.75;entryY=1;entryDx=0;entryDy=0;" edge="1" parent="1" source="dnhSuoNJByi2-0SbZ8vb-1" target="mbTVtiMHDX3Djsl5jZRn-63">
          <mxGeometry relative="1" as="geometry">
            <Array as="points">
              <mxPoint x="125" y="555" />
            </Array>
          </mxGeometry>
        </mxCell>
        <mxCell id="dnhSuoNJByi2-0SbZ8vb-1" value="alu_result" style="rounded=0;whiteSpace=wrap;html=1;" vertex="1" parent="1">
          <mxGeometry x="250" y="530" width="120" height="50" as="geometry" />
        </mxCell>
        <mxCell id="dnhSuoNJByi2-0SbZ8vb-4" value="" style="endArrow=classic;html=1;rounded=0;dashed=1;entryX=0.5;entryY=0;entryDx=0;entryDy=0;" edge="1" parent="1" target="dnhSuoNJByi2-0SbZ8vb-1">
          <mxGeometry width="50" height="50" relative="1" as="geometry">
            <mxPoint x="310" y="490" as="sourcePoint" />
            <mxPoint x="309.71" y="520" as="targetPoint" />
          </mxGeometry>
        </mxCell>
        <mxCell id="dnhSuoNJByi2-0SbZ8vb-5" value="latch_alu_result" style="edgeLabel;html=1;align=center;verticalAlign=middle;resizable=0;points=[];" vertex="1" connectable="0" parent="dnhSuoNJByi2-0SbZ8vb-4">
          <mxGeometry x="-0.0036" relative="1" as="geometry">
            <mxPoint as="offset" />
          </mxGeometry>
        </mxCell>
      </root>
    </mxGraphModel>
  </diagram>
</mxfile>
